# xmcd
# 
# Track frame offsets:
#     150
#     16497
#     29651
#     40823
#     44447
#     55066
#     58874
#     70791
#     75564
#     79342
#     81958
#     83775
#     92306
#     103622
#     114411
#     125565
#     135853
#     148581
#     159127
#     170612
#     182992
#     202007
#     211815
#     220557
#     231154
#     236019
#     243496
#     258414
#     263764
#     285133
#     296544
#     309745
#     321725
#     345672
# 
# Disc length: 4745
# 
# Revision: 2
# Processed by: cddbd v1.5.2PL0 Copyright (c) Steve Scherf et al.
# Submitted via: fre:ac v1.0.31
# 
DISCID=e5128722
DTITLE=The Beach Boys - Sunshine Tomorrow Disc 2
DYEAR=2017
DGENRE=Rock/Pop
TTITLE0=Heroes And Villains (single version backing track) (stereo)
TTITLE1=Vegetables (long version) (alt. mix) (stereo)
TTITLE2=Fall Breaks And Back To Winter (alt. mix) (stereo)
TTITLE3=Wind Chimes (alternate tag section)
TTITLE4=Wonderful (backing track) (stereo)
TTITLE5=With Me Tonight (alt) (stereo)
TTITLE6=Little Pad (backing track) (stereo)
TTITLE7=All Day All Night (Whistle In) (alt 1)
TTITLE8=All Day All Night (Whistle In) (alt 2)
TTITLE9=Untitled (Redwood) (fragment)
TTITLE10=Fred Vail Intro
TTITLE11=The Letter (Heider sessions) (mono)
TTITLE12=You're So Good To Me (Heider sessions) (mono)
TTITLE13=Help Me, Rhonda (Heider sessions) (mono)
TTITLE14=California Girls (Heider sessions) (mono)
TTITLE15=Surfer Girl (Heider sessions) (mono)
TTITLE16=Sloop John B (Heider sessions) (mono)
TTITLE17=With A Little Help From My Friends (mono)
TTITLE18=Their Hearts Were Full Of Spring (Hawaii rehearsal) (mono)
TTITLE19=God Only Knows (Heider sessions) (mono)
TTITLE20=Good Vibrations (Heider sessions) (mono)
TTITLE21=Game Of Love (Heider sessions) (mono)
TTITLE22=The Letter (alt) (Heider sessions) (stereo)
TTITLE23=With A Little Help From My Friends (stereo)
TTITLE24=Hawthorne Boulevard (Hawaii live) (mono)
TTITLE25=Surfin' (Hawaii live) (mono)
TTITLE26=Gettin' Hungry (Hawaii live) (mono)
TTITLE27=Hawaii (Hawaii rehearsal) (mono)
TTITLE28=Heroes And Villains (Hawaii rehearsal) (mono)
TTITLE29=California Girls (Washington, DC live) (mono)
TTITLE30=Graduation Day (Washington, DC live) (mono)
TTITLE31=I Get Around (Boston, MA live) (mono)
TTITLE32=Surf's Up (original 1967 version) (stereo)
TTITLE33=Surfer Girl (1967 a cappella mix)
EXTD=
EXTT0=
EXTT1=
EXTT2=
EXTT3=
EXTT4=
EXTT5=
EXTT6=
EXTT7=
EXTT8=
EXTT9=
EXTT10=
EXTT11=
EXTT12=
EXTT13=
EXTT14=
EXTT15=
EXTT16=
EXTT17=
EXTT18=
EXTT19=
EXTT20=
EXTT21=
EXTT22=
EXTT23=
EXTT24=
EXTT25=
EXTT26=
EXTT27=
EXTT28=
EXTT29=
EXTT30=
EXTT31=
EXTT32=
EXTT33=
PLAYORDER=
